/* XPM */
static char *_941a33d6af640f2cf88ea7bc423fc21idSZNEDNfTTdcQOT[] = {
/* columns rows colors chars-per-pixel */
"50 50 28 1 ",
"  c #3C2430",
". c #3D2431",
"X c #3D2531",
"o c #3F2632",
"O c #3F2733",
"+ c #402633",
"@ c #402733",
"# c #412735",
"$ c #412834",
"% c #422835",
"& c #422935",
"* c #422836",
"= c #432936",
"- c #432B37",
"; c #442A37",
": c #442B37",
"> c #442A38",
", c #442B38",
"< c #452B38",
"1 c #442C38",
"2 c #452C38",
"3 c #462D39",
"4 c #472E3B",
"5 c #472F3B",
"6 c #482E3B",
"7 c #492F3C",
"8 c #48303C",
"9 c #49303C",
/* pixels */
"################################X**###############",
"################################**################",
"################################*@**##############",
"################################@**@##############",
"############@**@##**##*@#***#*******##############",
"#############**;*#******#@*****@-***##############",
"##########*@#;-6;**;****##**33******##############",
"###########**;92;;;2;;;*****32*2-3******##########",
"#########*#*2299299-***822;***@-233>32>*##########",
"#######***##*2232-88--2328>;****331*22>>##########",
"#######;23@XX*32@@*88-@X**3632-X@XO**13>;#########",
"#######*2*XXX*92-*8888***299982**X**>333>>;#######",
"#######*;*XX369993999822399992-*33>973223>>*######",
"########X*X*299998999999999998-349999932;6*#######",
"########X*;69999999999999999998399999922****######",
"#####****X2699999999999963399999999993;**#########",
"####*>3;**39999999999993*@@26999999993@@X @@######",
"####>;232>99999999999963*@*36999999993*O@@;;######",
"###;>3;;269999999999963*2239999999999833326;######",
"##*;;6;*699699639999962369999999999999333663;#####",
"######*;362247333999999399999999999989@@*;;#######",
"#######*33;;79>>999999999999999999998-* @@########",
"####@#@;;;3699939999999999999999999988***#########",
"###*;*;*@*3639999999999999999999999983**##;;;#####",
"###*22;**#@*69999999999999999999999992**#;62;#####",
"##**;2;*@*@*38999999999999999999999999>3;;62*#####",
"####****;;2398999999999999999999999999933696;#####",
"####XX*;;*9998999999999999999999999999293662*#####",
"##******@268999999999999998899999999992222-**#####",
"###@**-*@@289999999999987339999999999922***X######",
"##****22*;39999999999988*@;;69999992998282**######",
"##X***--2*39999993398882-*;399369999993883**######",
"#########*699992@*99982*229993**8899996676;#######",
"#####XXX**999999**2*9-2*262273**299999933>*#######",
"#######*39998898>3#XO*22@X**996689999992#@########",
"#######*2262*7936;@X @26;@ @*89999889993*X@#######",
"######*#@@****93*X#@#*>692##*;6992223996##########",
"######*XX@*;@@22#X###;369*;##;;622*@-93;*#########",
"##########22**93*@###*>>;;*##*;#@@ @*;*@##########",
"#########;2;;>33;#######@*@####@@@@@@*@@##########",
"##########;##;>#################X#####X###########",
"#####################################**###########",
"##################################################",
"##################################################",
"##################################################",
"##################################################",
"##################################################",
"##################################################",
"##################################################",
"##################################################"
};
