/* XPM */
static char *d9569c9c2ffc488de6f15023571fa173XkHsb1bqtRI92mZg[] = {
/* columns rows colors chars-per-pixel */
"50 50 178 2 ",
"   c None",
".  c #060608",
"X  c #080709",
"o  c #0A0809",
"O  c #160E0F",
"+  c #131315",
"@  c #191111",
"#  c #1A191B",
"$  c #221414",
"%  c #331D1B",
"&  c #3A211F",
"*  c #201F20",
"=  c #222224",
"-  c #2B2223",
";  c #2D2D2E",
":  c #332626",
">  c #3B2220",
",  c #353536",
"<  c #373738",
"1  c #393738",
"2  c #39393A",
"3  c #383536",
"4  c #442523",
"5  c #472825",
"6  c #4B2926",
"7  c #4D2C2A",
"8  c #472926",
"9  c #532D2A",
"0  c #502B27",
"q  c #5D322E",
"w  c #463E3E",
"e  c #5E3837",
"r  c #60342F",
"t  c #643631",
"y  c #673833",
"u  c #6C3A35",
"i  c #6F3E39",
"p  c #713D38",
"a  c #6B413C",
"s  c #74413C",
"d  c #7B433D",
"f  c #3F3F40",
"g  c #513C42",
"h  c #464647",
"j  c #4B4B4C",
"k  c #4F424B",
"l  c #5E4246",
"z  c #54444D",
"x  c #564D4C",
"c  c #5E4349",
"v  c #4F4F50",
"b  c #554752",
"n  c #554A56",
"m  c #5B4B56",
"M  c #594B56",
"N  c #535354",
"B  c #5C5C5E",
"V  c #565658",
"C  c #644144",
"Z  c #6D4A4E",
"A  c #694447",
"S  c #744A46",
"D  c #724E4C",
"F  c #784E4A",
"G  c #614E58",
"H  c #714E50",
"J  c #745152",
"K  c #7A5654",
"L  c #785855",
"P  c #7C5D5A",
"I  c #7D615E",
"U  c #434F65",
"Y  c #4B4E60",
"T  c #455167",
"R  c #465268",
"E  c #49566D",
"W  c #4E5264",
"Q  c #5D5361",
"!  c #5B5A6C",
"~  c #4C5971",
"^  c #535F76",
"/  c #585B70",
"(  c #625765",
")  c #645866",
"_  c #695F60",
"`  c #615969",
"'  c #556076",
"]  c #55637C",
"[  c #5B657B",
"{  c #636364",
"}  c #6C6C6C",
"|  c #7F6A68",
" . c #666073",
".. c #6E6576",
"X. c #63657B",
"o. c #796C7C",
"O. c #746C77",
"+. c #79797A",
"@. c #854842",
"#. c #8B4C45",
"$. c #904F47",
"%. c #9A544D",
"&. c #805457",
"*. c #905E5F",
"=. c #83625E",
"-. c #856562",
";. c #866864",
":. c #846D6B",
">. c #85716F",
",. c #806F7E",
"<. c #847775",
"1. c #8B7A78",
"2. c #927D7B",
"3. c #95817F",
"4. c #596780",
"5. c #5C6A85",
"6. c #5F6D89",
"7. c #616C84",
"8. c #606E8B",
"9. c #6C6F80",
"0. c #63718D",
"q. c #6E758E",
"w. c #6C788D",
"e. c #647086",
"r. c #767688",
"t. c #677795",
"y. c #697694",
"u. c #6E7A93",
"i. c #6F7F9F",
"p. c #727C95",
"a. c #727791",
"s. c #8B7E8A",
"d. c #6F809F",
"f. c #748097",
"g. c #7C869C",
"h. c #7E899E",
"j. c #788399",
"k. c #7786A4",
"l. c #7A89A5",
"z. c #7B87A1",
"x. c #808081",
"c. c #8B8B8B",
"v. c #898484",
"b. c #998C8B",
"n. c #8C8D93",
"m. c #86899B",
"M. c #949494",
"N. c #9E9E9E",
"B. c #9C9796",
"V. c #808EAA",
"C. c #808DA6",
"Z. c #8694AE",
"A. c #8895AF",
"S. c #8A92A2",
"D. c #9599A9",
"F. c #9697A9",
"G. c #8896B0",
"H. c #8C99B2",
"J. c #939FB7",
"K. c #9AA0AC",
"L. c #96A1B9",
"P. c #98A3BA",
"I. c #9EA9BF",
"U. c #95A0B5",
"Y. c #A4A3A3",
"T. c #ADADAD",
"R. c #A8A6A6",
"E. c gray71",
"W. c #BCBCBC",
"Q. c #A4AEC2",
"!. c #A4AEC3",
"~. c #A5AFC3",
"^. c #C5C5C5",
"/. c #DDDDDD",
"(. c #D5D5D5",
"). c #E2E2E2",
"_. c #EBEBEB",
"`. c #F8F8F8",
/* pixels */
"                                          A.A.A.A.A.G.Z.A.A.G.                                      ",
"                                          Z.A.A.G.A.Z.G.G.Z.z.                                      ",
"                      A.A.A.A.A.A.A.A.5.^ l.A.A.A.G.G.A.G.G.p.T p.G.Z.G.G.A.G.G.                    ",
"                      G.G.A.G.A.A.A.A.7.' Z.L.L.J.L.L.L.L.P.p.T p.Z.G.G.G.A.Z.A.                    ",
"                      Z.G.G.G.G.A.A.A.5.[ U.!.!.~.~.!.!.~.~.g.T p.G.G.Z.Z.G.G.G.                    ",
"T 7.A.G.A.A.G.A.G.y.T g.G.G.G.G.A.G.H.5.~ g.G.G.Z.Z.Z.Z.Z.G.y.T p.G.G.G.G.G.G.G.w.^ C.A.A.A.A.G.A.A.",
"U 7.Z.A.A.A.A.A.G.u.U p.G.H.H.H.H.H.H.7.~ t.d.d.i.i.i.i.i.i.5.T p.H.H.H.H.H.H.H.5.^ l.A.A.A.A.Z.G.A.",
"U 7.G.Z.G.A.G.A.G.u.T g.I.I.I.I.I.I.I.e.~ t.d.d.i.i.i.i.k.d.6.T z.I.I.I.I.I.I.I.e.^ C.A.A.G.A.G.A.A.",
"U 7.G.G.G.G.G.G.G.y.U j.P.P.P.P.P.P.P.7.~ t.i.i.i.i.i.d.i.i.6.T z.J.J.P.P.P.P.P.e.^ C.Z.G.Z.G.G.G.A.",
"U 7.A.G.G.G.G.G.G.y.U q.l.l.l.l.l.l.l.4.~ t.i.i.i.d.i.i.i.i.6.T y.l.l.l.l.l.l.l.[ ^ l.Z.Z.G.G.G.A.A.",
"U e.J.J.J.J.J.J.J.f.U 6.i.i.i.i.i.i.i.] ~ t.i.i.i.d.i.d.i.i.6.U 8.i.i.i.i.i.i.i.] ^ Z.J.J.J.J.J.J.J.",
"U w.!.!.!.!.!.!.!.h.U 6.i.i.i.i.i.i.i.] ~ t.i.i.i.i.i.i.i.i.6.T 8.i.i.i.i.i.i.i.] [ J.!.!.!.!.!.!.!.",
"U 7.H.H.H.H.H.H.H.u.U 6.i.i.k.i.i.i.i.! g m ` ` ) ) ) ) ! Q n z 7.i.i.i.i.i.i.i.] ^ C.H.G.H.H.H.H.H.",
"U 4.i.i.i.i.d.i.i.6.Y 5.y.y.y.y.i.i.y.G 9 4 0 q q q 9 q 9 4 5 q  .y.p.p.y.i.y.p.^ ~ y.i.i.i.i.i.i.i.",
"U ] i.i.i.i.i.i.i.X.g m G G M b G G G g 9 4 6 q 9 q 9 q 9 4 5 q c G G m M m G G z n y.i.i.i.i.i.i.i.",
"U 4.i.i.i.i.i.i.i. .q 9 q q 7 4 9 q r r 9 6 0 q q q q r q 6 6 q q q r 0 4 9 q 9 q C q.i.i.i.i.i.i.i.",
"U 4.i.i.i.i.i.i.i. .q q q 9 6 4 q u u t t 9 q y y u y y t q q t u y y 9 4 9 q 9 q C q.y.i.i.i.i.i.i.",
"U ~ y.6.y.0.0.8.8.! q q r r 9 6 t u u u u q t u p u u u u t t u u u u q 6 q r r q C X.y.y.8.8.y.6.y.",
"U T E E E E E E E M u u u y t q u u u u y t t u u u u u y t t u p u p r q y y u t C W E E E E E E E ",
"U ' w.w.w.w.w.w.u.O.P P P ;.S r u u p u u q 9 4 4 4 4 4 4 > 0 u u u u y q y u u u Z 9.w.w.w.w.w.w.y.",
"U w.!.!.~.~.~.~.!.D.c.c.M.Y.:.r t u p u y r % o . . . . . o % u u u u r q u u p u K F.~.~.!.!.!.!.Q.",
"U 6.G.A.A.H.A.A.A.S.c.B.Y.T.>.r u u u u t % : 2 N { { +.c.c._ % q u u y q u u u u J m.G.G.G.G.H.A.G.",
"T ] i.d.d.i.d.i.i.j.v.B.Y.Y.:.q t u u y 9 $ 3 { c.N.N.^._._.F.$ 7 y p r q u u u u H y.i.i.i.i.i.d.d.",
"T ] i.i.i.i.i.i.i.9.L I =.=.S q u u u 5 % 2 { n.B 2 f v { c.N.T.x & y r r y p u u H q.i.i.i.i.i.i.d.",
"U ] i.i.d.i.d.i.i...u u u u y q y a u % # j x.Y.2 . . . # j N.`.{ @ t t q u u u u Z y.i.i.i.i.i.i.i.",
"T ] i.d.i.i.i.i.i...u p u p y q y u u % # j x.Y.2 . . . + j N.`.Q $ t t q y p a u Z a.i.i.i.i.i.i.d.",
"U 4.i.i.i.d.d.i.i...u u u u t q y r 8 : , { M.R.{ 2 f 2 j } Y./.c.x 7 9 q u S &.S D a.i.i.i.i.i.i.d.",
"U ] i.i.i.i.i.i.i...p u u p t t y 7 O < { B.R.T.Y.N.N.N.N.Y.T.E.(.T.; % q u =.Y.=.Z y.i.d.i.i.i.i.i.",
"T ~ 5.5.6.5.5.4.4.) u i u p y q u 6 o 1 } Y.T.T.T.T.T.T.T.T.T.T.).W.* % t y -.T.;.A X.4.5.5.5.5.5.5.",
"U T T T U T T R T b u u u a t q y 6 o 1 } N.T.T.T.T.T.T.T.T.T.T.).W.= % q y -.T.;.C Y T T T T T T T ",
"U [ h.g.g.g.k.g.m.O.u p u p t q u 8 o 1 } N.T.T.T.c.N j B B.T.T.).W.* % q y -.T.;.Z r.m.h.g.h.g.g.g.",
"U w.I.I.I.I.I.I.I.v.u u u u y q y 8 o 2 } K.T.T.T.+.+ . = c.T.E./.E.* % t y -.T.;.L F.I.I.I.I.I.I.I.",
"U 5.l.Z.l.l.l.l.l.a.i u u p t t y 8 o 2 } N.T.T.T.+.# X = c.T.T.W.b.# & q t =.T.;.F j.C.C.V.V.V.l.C.",
"U ] i.d.i.i.k.k.k...u u u u t q y 6 o 2 } N.T.T.T.+.+ X = c.T.T.T.f.# % q s =.T.;.D a.d.i.i.i.i.i.k.",
"U ] i.d.i.i.i.i.i...u u u p t q u 5 X 2 } N.T.T.T.+.+ . = c.T.T.T.x.# % q y =.R.;.Z w.d.i.i.i.k.i.i.",
"U 4.i.i.i.i.i.i.i...i u u u t q y 8 o 2 } Y.T.T.T.c.j h V N.T.T.T.x.+ % r y K 3.L Z w.d.i.i.i.i.i.i.",
"U 4.i.i.i.i.i.i.i...u u p u y t u 8 o 2 } Y.T.T.T.T.Y.Y.Y.T.T.T.T.x.# % q t s s p Z y.i.i.i.i.i.i.i.",
"U ] i.i.i.i.i.i.i...u p u u t q y 8 o 2 } N.T.T.T.T.T.T.T.T.T.T.T.x.# % q a u u u Z q.i.i.i.i.i.i.i.",
"U ] i.i.i.i.i.t.i...u u u u t q y 7 o < { B.Y.Y.Y.Y.Y.Y.Y.Y.Y.Y.Y.+.* & q y s s u Z 0.i.t.i.i.i.i.i.",
"U E ^ ] ^ ^ ^ 4.^ Q u p u p t q u q 6 : ; h h h h h h h h h h h h w 8 7 q y y u u A / ^ 4.4.^ ^ ' ' ",
"T ~ ' ' ' ' ' ' ^ ) S S S S a q y u u & @ @ @ @ @ @ @ @ @ O @ @ O % t t r u u p u A ! ^ ^ ^ ^ ' ' ' ",
"T X.A.A.S.D.A.A.D.m.<.<.3.b.I r u u u q 9 4 6 9 9 9 9 9 6 6 6 9 0 q u t q y u u u J m.F.A.D.D.A.A.A.",
"T e.L.L.P.L.P.L.L.D.c.M.B.T.>.q y u u u u q y u u u u u u r r u u u p r r y u u u J F.J.L.L.L.L.J.J.",
"T [ k.k.k.k.k.k.k.g.c.D.R.T.>.q u p u p u q r u p u u u u r y u p u u t r y p u u H a.k.k.k.k.k.k.k.",
"T ] d.d.d.i.i.i.d.r.:.>.3.2.L q y u u u u r r u u p u u u q r u u u u y r y u u u Z y.d.i.i.i.k.k.i.",
"T ] d.d.i.i.i.d.d...s s a s y q u u u u u r y u u u p u u r y u u p u t r y u p u Z a.i.i.i.i.i.i.i.",
"T ] d.d.i.i.i.i.d.O.@.@.@.@.p r d @.@.@.d r u @.@.@.@.@.d y u @.@.@.@.p r d @.@.@.&.a.d.i.i.i.i.i.i.",
"T ] d.d.d.d.d.d.i.,.%.%.%.%.d r #.%.%.%.#.y d %.%.%.%.%.$.u s %.%.%.%.d y #.%.%.%.*.a.d.d.i.i.i.d.d.",
"                                                                                                    ",
"                                                                                                    "
};
