/* XPM */
static char *d5fb36a41bd14d31c46b411a3015ecb4yUjba0P2a4vxFpru[] = {
/* columns rows colors chars-per-pixel */
"40 40 225 2 ",
"   c None",
".  c #010100",
"X  c #0A0600",
"o  c #0C0900",
"O  c #150D00",
"+  c #1D0F0D",
"@  c #150600",
"#  c #151100",
"$  c #1C1301",
"%  c #1D1901",
"&  c #1D170C",
"*  c #1A1A18",
"=  c #210800",
"-  c #2C0C00",
";  c #380E00",
":  c #221500",
">  c #251B02",
",  c #2C1C01",
"<  c #271605",
"1  c #311D00",
"2  c #2C1717",
"3  c #261513",
"4  c #2C2500",
"5  c #272300",
"6  c #342302",
"7  c #3A2502",
"8  c #3A2802",
"9  c #3E2E09",
"0  c #3C3500",
"q  c #352310",
"w  c #2C2812",
"e  c #2C2C2B",
"r  c #2C2121",
"t  c #3E2121",
"y  c #481300",
"u  c #571700",
"i  c #631B00",
"p  c #721E00",
"a  c #791F00",
"s  c #4D2E00",
"d  c #452901",
"f  c #532900",
"g  c #453C00",
"h  c #4A3E01",
"j  c #4E3101",
"k  c #543401",
"l  c #483115",
"z  c #432B10",
"x  c #652A02",
"c  c #792401",
"v  c #653A00",
"b  c #733701",
"n  c #613212",
"m  c #492626",
"M  c #512B29",
"N  c #683736",
"B  c #7A3F3F",
"V  c #633829",
"C  c #544700",
"Z  c #4F4507",
"A  c #6E4000",
"S  c #634600",
"D  c #754500",
"F  c #784801",
"G  c #655504",
"H  c #674315",
"J  c #745A13",
"K  c #6B5310",
"L  c #6F6000",
"P  c #716200",
"I  c #7A6A00",
"U  c #7A6700",
"Y  c #6F6319",
"T  c #49452C",
"R  c #6C4F2D",
"E  c #7A7132",
"W  c #706135",
"Q  c #494949",
"!  c #585858",
"~  c #684845",
"^  c #695A59",
"/  c #73594C",
"(  c #77714C",
")  c #6F6E6E",
"_  c #7B7874",
"`  c #832300",
"'  c #8A2400",
"]  c #932600",
"[  c #9B2B00",
"{  c #833709",
"}  c #B42E00",
"|  c #B93600",
" . c #A62B00",
".. c #CC3400",
"X. c #D53A00",
"o. c #EB3D00",
"O. c #F23F00",
"+. c #814C05",
"@. c #884A03",
"#. c #815600",
"$. c #945508",
"%. c #8A5410",
"&. c #8A5A18",
"*. c #935C1B",
"=. c #9E5B19",
"-. c #BA4D08",
";. c #826800",
":. c #827200",
">. c #8C7701",
",. c #987702",
"<. c #9F7C16",
"1. c #BB6C05",
"2. c #AA7B04",
"3. c #A26D1A",
"4. c #815326",
"5. c #8E5B26",
"6. c #844B33",
"7. c #804D3C",
"8. c #8F5631",
"9. c #A05F23",
"0. c #9C6326",
"q. c #A56628",
"w. c #A46A30",
"e. c #A97232",
"r. c #CE4901",
"t. c #D64C0B",
"y. c #DB5313",
"u. c #F64100",
"i. c #FB4200",
"p. c #FF5D1B",
"a. c #F0510C",
"s. c #D57A00",
"d. c #D36600",
"f. c #FB6606",
"g. c #E16C00",
"h. c #D85428",
"j. c #FB5D25",
"k. c #FF6023",
"l. c #9A5943",
"z. c #9F5353",
"x. c #8B5050",
"c. c #A65757",
"v. c #A05A47",
"b. c #9F7676",
"n. c #A07663",
"m. c #DC6C5C",
"M. c #CE6C6B",
"N. c #DC756E",
"B. c #D5716C",
"V. c #EC7B7A",
"C. c #9F8B00",
"Z. c #9C8604",
"A. c #A38904",
"S. c #B68B00",
"D. c #A59107",
"F. c #AE891D",
"G. c #B8A000",
"H. c #BCA611",
"J. c #9F933E",
"K. c #AF8F29",
"L. c #C4960D",
"P. c #F98500",
"I. c #FF9A13",
"U. c #C6AA06",
"Y. c #CDB300",
"T. c #D7B701",
"R. c #D1B812",
"E. c #E7BD07",
"W. c #F6A90A",
"Q. c #D39237",
"!. c #CBB52C",
"~. c #D9BC34",
"^. c #F6B323",
"/. c #ECCD01",
"(. c #ECC703",
"). c #F9C700",
"_. c #F6D600",
"`. c #FAD900",
"'. c #FDD606",
"]. c #F6D30B",
"[. c #FFC525",
"{. c #F2D637",
"}. c #9F9342",
"|. c #AE8844",
" X c #A48F56",
".X c #90897B",
"XX c #A89470",
"oX c #AAA060",
"OX c #F19349",
"+X c #C29A6E",
"@X c #FF9D60",
"#X c #FA847F",
"$X c #EC8D60",
"%X c #FFAD78",
"&X c #F5A449",
"*X c #F6D45B",
"=X c #F6D56A",
"-X c #FAE56A",
";X c #D1C262",
":X c #9E9E9E",
">X c #9F9E94",
",X c #8C8684",
"<X c #A19885",
"1X c #A3A3A2",
"2X c #BCB9B9",
"3X c #C39084",
"4X c #F68D8C",
"5X c #D1AD8F",
"6X c #E8B19E",
"7X c #FFA6A5",
"8X c #F5B2B2",
"9X c #D5CB8C",
"0X c #CDC8BF",
"qX c #FFC0A8",
"wX c #F1E29C",
"eX c #CECECC",
"rX c #D7D6D1",
"tX c #FFDDD9",
"yX c #F5C9C9",
"uX c #EBE6D8",
"iX c #F8F0D6",
"pX c #EDECEB",
"aX c #F3EDEC",
"sX c gray96",
"dX c #F8F7F6",
/* pixels */
"            . . . . . . . . . . . . . . . . . . . . . . . . . . . . . .         ",
"            . * e e e e e w 4 5 4 4 4 4 4 2 2 2 2 2 2 2 r e * . * e w 4         ",
"            . Q :X:X:X:X:X}.C.C.C.C.C.C.<.l.z.c.z.z.z.z.b.:XQ X ! >XJ.,.Z .     ",
"            . ) sXdXpXpXpX*X/./././././.^.$XV.V.V.V.V.V.8XpX_ + ,XuX*XY.G o     ",
"            . ) sXeX.X.X_ E I I I I I I J R B B B B B B ^ _ / ' / _ E I I U 0 . ",
"            . ) sX<Xd > X . X X o o X X X X . X . . X X X X ` O.c X X , D.Y.g . ",
"            . ) sX<X8 , & # O X . . . . . . . . . . . . . . { P.$.1 : 4 G I 4 . ",
"            . ) sX<X8 6 6 4 4 O . . . . . . . . . . . . . . ;.).2.v d 4 4 % X . ",
"            . ( wX X6 8 8 8 6 : o X . . . . . . . . . . . . :.'.S.F k 7 , $ X . ",
"            . Y *XD.8 8 8 8 8 4 > o . . . . . . . . . . . . :.`.S.F k d k f $ . ",
"            . L _.Z.8 8 8 6 8 8 6 $ o . . . . . . . . . . . :.`.S.F k 8 k k O . ",
"            . L _.C.9 6 8 8 8 8 7 , $ X . . . . . . . . . . :.`.S.F k 7 , : o . ",
"            . L ].<.8 8 8 8 8 8 8 8 4 O . . . . . . . . . . ;.).2.b j , - @ X . ",
"            . R &Xq.8 8 8 8 8 8 8 8 6 > # X . . . . . . . . #.f.@.1 : , x a - . ",
"            . N #Xl.9 8 8 8 8 8 8 8 8 8 , o . . . . . . . . ` u.a . X =  ...y . ",
"            . / 8Xn.8 8 8 8 8 8 8 8 8 8 , o . . . . . . . . ` i.} a a a ` a ; . ",
"            X ) aXXX7 6 8 8 7 7 8 8 8 8 , o . . . . . . . . ` i.O.o.o...i @     ",
"            . ^ yX3X6.6.6.6.6.6.6.{ b f 6 $ o . . . . . . . ` i...[ [ ] y .     ",
"            . ~ 4X4XN.N.N.N.N.N.m.h.| x 8 4 % X . . . . . . ` O.' - - -         ",
"          n.h w.4X4X7X7X7X%X@X@XOXj.y.8.W J h # $ 0 g g d y ` } i . . .         ",
"    . ! rX9XH.Q.4X7XtXtXiX=X[.[.^.f.j.5X5X!.>.> g D.G.G.1.| c y ;               ",
"    3 ^ 2X9XR.!.B.6XiXuXeX;XT._.W.g.h.5X9X!.Z.l K G.T.Y.s.X.c 4 5               ",
". t x.x.^ ~ G H N |.-XoX^ R P U.(.$.n ~ ! Y K x.6.G G G k i #.C.C .             ",
". m M.c.3 . . . . U '.;.@ @ , A.T.C . . X . M B.c.+ . X . . :._.P .             ",
". m M.c.3 X $ O . F P.r.` ` [ d.s.s X # : : V B.c.+ o $ o . :.`.P .             ",
". m M.c.3 O 6 $ . a i.i.i.i.O.i.X.u X , 7 6 R B.c.+ # 6 $ . :._.P .             ",
". l Q.e.3 : j s 7 x ] ] ] ] ] ] ` u 6 s k k 5.OXw.+ : k , . :._.P .             ",
". h U.F.> , v D A d = = $ $ = = - k D D D D 2.E.D.& , A d . :._.P .             ",
". h Y.L.v x %.%.%.n q q q q q q z H %.%.%.%.2.(.D.% > v 6 . #.W.A .             ",
". h Y.W.r.-.9.0.0.5.4.4.4.4.4.4.4.0.0.0.0.0.F.).D.$ $ d > . { f.b .             ",
". Z !.^.a.t.9.0.0.0.0.0.0.0.0.0.0.0.0.0.9.9.K.{.F.% : d , . ` O.p .             ",
". T 9X%Xp.t.%.%.%.%.%.%.%.%.%.%.%.%.%.%.%.%.J.wXXX* , v 1 . ` O.p .             ",
". Q eX8Xk.r.@.+.+.+.+.+.+.+.+.+.+.+.+.+.+.@.n.tX1X* 6 A d . ` u.p .             ",
". Q rXqXk.t.=.*.*.0.*.*.*.*.0.*.*.*.*.*.0.*.XXuX1X3 : k , . ` O.p .             ",
". Q eXqXk.y.w.w.w.w.w.w.w.w.w.w.w.w.w.w.w.w.+XpX1X* $ 7 : . c u.p .             ",
". T ;X*XI.d.V H *.*.*.&.*.*.*.*.&.*.*.*.3.L.~.-XoX& : k 6 . +.P.b .             ",
". h R.'.'.A.> 8 F +.F +.+.+.+.F F +.+.+.2.T.'.'.D.% 1 D 7 . I ).L .             ",
". 4 :.C.C.G o : s s k f s s s f j f k s C >.D.A.G # : d , . C Z.g .             ",
". o 5 4 4 $ . o O O O O O O O O O O O O $ 4 4 4 % . o O X . $ 4 # .             ",
". . . . . . . . . . . . . . . . . . . . . . . . . . . . . . . . . .             "
};
