/* XPM */
static char *_bbd8a13c57b447ab1f9ab6f54fee9d5qxkixxMoOIXYAap6[] = {
/* columns rows colors chars-per-pixel */
"40 40 237 2 ",
"   c None",
".  c #010100",
"X  c #0A0600",
"o  c #0D0B05",
"O  c #150D02",
"+  c #170902",
"@  c #141101",
"#  c #1B1201",
"$  c #12120B",
"%  c #1B1B15",
"&  c #220900",
"*  c #2D0C00",
"=  c #210E0B",
"-  c #221600",
";  c #231A01",
":  c #2C1A00",
">  c #26170D",
",  c #331E03",
"<  c #361D0A",
"1  c #291813",
"2  c #390E00",
"3  c #2C2601",
"4  c #282402",
"5  c #352402",
"6  c #3A2503",
"7  c #3D3400",
"8  c #2C2C1C",
"9  c #292717",
"0  c #362310",
"q  c #3B2710",
"w  c #272727",
"e  c #36362A",
"r  c #4C1601",
"t  c #571800",
"y  c #621A00",
"u  c #6F1D00",
"i  c #791F00",
"p  c #741E00",
"a  c #432D04",
"s  c #4D2E01",
"d  c #492D09",
"f  c #493803",
"g  c #533401",
"h  c #593407",
"j  c #4C2B19",
"k  c #5F3D1C",
"l  c #533712",
"z  c #512B10",
"x  c #7A2200",
"c  c #623A01",
"v  c #693D02",
"b  c #673308",
"n  c #482726",
"m  c #503428",
"M  c #653B29",
"N  c #613232",
"B  c #733E38",
"V  c #544901",
"C  c #574504",
"Z  c #595114",
"A  c #774604",
"S  c #665800",
"D  c #684619",
"F  c #724B1B",
"G  c #744811",
"H  c #715E06",
"J  c #796502",
"K  c #70651D",
"L  c #595939",
"P  c #5F5923",
"I  c #7C482D",
"U  c #72432C",
"Y  c #7C6939",
"T  c #484848",
"R  c #505050",
"E  c #575443",
"W  c #7D4140",
"Q  c #6A684B",
"!  c #842200",
"~  c #932600",
"^  c #982A04",
"/  c #843D04",
"(  c #A02A00",
")  c #B53300",
"_  c #9B3C25",
"`  c #933E30",
"'  c #D23700",
"]  c #CB3800",
"[  c #EB3D00",
"{  c #814D05",
"}  c #834B06",
"|  c #87550E",
" . c #8A5410",
".. c #865419",
"X. c #935C1B",
"o. c #96571B",
"O. c #96480C",
"+. c #B74D00",
"@. c #857401",
"#. c #8A7603",
"$. c #927F01",
"%. c #9C7B01",
"&. c #9B7A14",
"*. c #8C681B",
"=. c #A57800",
"-. c #874D2C",
";. c #805326",
":. c #8B5926",
">. c #97582A",
",. c #8F5139",
"<. c #A45C2B",
"1. c #AA4220",
"2. c #9C6326",
"3. c #976120",
"4. c #907134",
"5. c #A16128",
"6. c #A36A30",
"7. c #AA6834",
"8. c #B1713B",
"9. c #D64400",
"0. c #C14100",
"q. c #FD4400",
"w. c #FF5216",
"e. c #D27B04",
"r. c #F67500",
"t. c #FF5F38",
"y. c #ED572B",
"u. c #D17131",
"i. c #F17532",
"p. c #C05B2B",
"a. c #834542",
"s. c #9A504C",
"d. c #B05B55",
"f. c #9F624C",
"g. c #B8625C",
"h. c #BB7048",
"j. c #B87866",
"k. c #CA6B4E",
"l. c #CC7454",
"z. c #D4765A",
"x. c #C3774C",
"c. c #D36E6D",
"v. c #DC6D67",
"b. c #D47167",
"n. c #DC7567",
"m. c #D87C65",
"M. c #CA6B66",
"N. c #E47967",
"B. c #FB7866",
"V. c #FF7D74",
"C. c #FF6F51",
"Z. c #9E8A00",
"A. c #9B8A16",
"S. c #B98C06",
"D. c #B09100",
"F. c #BCA400",
"G. c #8C8136",
"H. c #9D902D",
"J. c #B28F29",
"K. c #BCA720",
"L. c #C69716",
"P. c #D28E09",
"I. c DarkOrange",
"U. c #F29507",
"Y. c #C6AD00",
"T. c #D7BE12",
"R. c #CEB40B",
"E. c #F4B605",
"W. c #C69726",
"Q. c #D8AE25",
"!. c #F6AC2F",
"~. c #FF9A2B",
"^. c #DFC200",
"/. c #E9C902",
"(. c #F1CD04",
"). c #FFD301",
"_. c #FADA01",
"`. c #FFD70A",
"'. c #FAD80A",
"]. c #EAD11C",
"[. c #FFE215",
"{. c #FFC12B",
"}. c #FFCC27",
"|. c #F8D42D",
" X c #ECD439",
".X c #868558",
"XX c #999657",
"oX c #958E46",
"OX c #B79749",
"+X c #B28843",
"@X c #9E9E66",
"#X c #9D9D76",
"$X c #9F8661",
"%X c #B5A675",
"&X c #BCA162",
"*X c #CA9456",
"=X c #F39D50",
"-X c #C6A35B",
";X c #C6AE4B",
":X c #FFAF45",
">X c #FFB157",
",X c #D38A69",
"<X c #FF8966",
"1X c #FF9966",
"2X c #FB9669",
"3X c #F69C78",
"4X c #CFB16E",
"5X c #F9AA78",
"6X c #D9C94C",
"7X c #F8CF52",
"8X c #FDEE5B",
"9X c #FAD864",
"0X c #FFD076",
"qX c #F9E973",
"wX c #D8D16F",
"eX c #FF8780",
"rX c #FF8884",
"tX c #FF9985",
"yX c #FFA38C",
"uX c #FEAB8C",
"iX c #F6BC85",
"pX c #FFBF94",
"aX c #E9B186",
"sX c #C5C580",
"dX c #D2D288",
"fX c #DAD48D",
"gX c #E5D887",
"hX c #FEC694",
"jX c #FFD79A",
"kX c #FEDB9A",
"lX c #F8CD84",
"zX c #EBEA99",
"xX c #F5EA96",
"cX c #F6F49D",
"vX c #FFEF80",
"bX c #FFF6A3",
"nX c #FFFDA4",
/* pixels */
"        . . . . . . . . . . . . . . . . . . . . . . . . . . . . . . . .         ",
"        4 3 3 3 : < 1 o X X X X X X X X X X X X X X X X @ ; 3 1 1 * * &         ",
"      O S Z.Z.Z.A.f.a.j ; ; ; ; ; ; ; ; ; ; ; ; ; ; ; ; f @.A.7.s.1.^ y +       ",
"    . @ @.'.`.`.!.1XM.-.a a a a a a a a 7 a a a a a a a @.R.}.1XV.t.[ ! + .     ",
"    . $ G.8X7X!.=X*Xk.>.F F F F U F F F F F F F F F F F 4.6X9X5XV.t.q.! + .     ",
"    . $ .XcXjXyXN.8.7.5.6.6.6.6.6.6.6.6.6.6.6.6.6.6.6.2.*XgXxXiXV.t.[ ~ + .     ",
"  9 L Q %XhX3Xl.8.<.X.X.X.X.X.>.X.X.X.X.X.3.X.X.*.:.8.&X4XlXiXm.s._ ~ ! u t &   ",
". 8 @XfXiXtXl.X.| | { { { { } } { { { { { { { { { { OXgXhXuXm.,.z < & i ] ~ * . ",
". 8 @XbXpXrXl.>. . . . . . . . . . .| |  . . . . . .OXxXkXyXn.-.a - . i [ ( * . ",
". 8 @XbXpXrXz.7.2.2.2.2.2.2.2.2.2.2.2.2.2.2.2.2.2.5.-XxXkXtXN.>.c , X i [ ( * . ",
"X 8 XXqXuXrXz.7.2.2.>.:.;.;.;.K ;.;.;.:.>.2.2.2.2.2.;XqX0XyXn.>.c : X i [ ( * . ",
". q H.|.>X3Xl.X.| | G h 0 0 0 0 0 0 0 z G | | |  . .J.|.7X3Xn.-.s - . i [ ( * . ",
". 3 Z.`.:XrXk.o.A A h 6 ; ; # ; ; # > < h A A } { A S.(.!.1Xn.I 6 # X i [ ( * . ",
". 3 Z.`.:X3Xz.2.G s f H $.Z.#.Z.Z.*.s.U j a G X.X.X.L.(.}.1Xn.>.g : . i [ ^ * . ",
". 3 Z.`.:XeXn.7.U : f D._._._._._.!.2Xg.n = D 6.6.6.L.(.!.1XN.<.v , X i [ ( * . ",
". 3 Z.`.:XeXg.U Z H @.A.H.A.@.@.@.*.a.W W B M k G X.L.(.}.1Xb.>.g : . i [ ( * . ",
". 3 Z.`.:XrXs.1 V F.F.G.E 8 $ $ @ @ $ m g.M.N + d A S./.!.1Xb.I 5 # . i [ ( * . ",
". 3 Z.).~.C.` = V F.].G.T w . . . . . n g.c.N X d  .L.(.{.1Xn.:.s - . x [ ( * . ",
". 3 Z.).U.w.^ + V F.^.G.T w . . . . . n g.c.N o l >.L.`.{.1Xn.<.c 5 . i [ ( * . ",
". 3 @.P.P.r.+.t K T.6Xf.T w . . . . . n j.,X,.t ..J.P.E.~.<XN.p.O.u r x ) p & . ",
"    7 V =.E.r.+.u.9XwX.XT w . . . . . m %XiXx.) e./.U.r.i.<XB.y.' ] ) ! r * X . ",
"    4 7 =.E.U.9.u.0XfX#XQ T $ o . $ 1 Q 4XlXi.9.e.Y.U.r.i.B.N.y.' ' ' ! 2 + X . ",
". 4 J Z.P.r.+.i 4.dXbXdX#XQ e w . e .X%XaX,Xf.t h S =.U.~.<Xv._ y y y i ^ y + . ",
". 3 Z.).I.q.~ + L sXnXnXzX#XR w o L dXxXuXc.N . . . H /.!.1XM.n . . X ! [ ( * . ",
". 3 Z.).I.q.~ & L sXcXnXzX#XR w $ L dXkXuXc.N . o # J E.{.1XM.M O O . i [ ( * . ",
". 3 Z.).I.q.~ & L sXnXnXzX#XR w X E dXxXuXc.N . # 5 #./.{.1XM.I 5 # X i [ ( * . ",
". 3 Z.).I.q.~ & P ;X8X8XwXXXR e o P 6X0X5Xc.N X , g %./.{.1Xn.I 5 O . i [ ( * . ",
". 3 Z.).I.q.~ & V R.[.[.].H.R w X Z T.{.1Xc.N o 6 A D./.{.1XM.I 5 O X i [ ( * . ",
". 3 Z._.~.w.1.z Z %.F./.(.K.G.K V &.Q.!.x.s.M q Z | S.(.{.1Xn.-.a - . i [ ( * . ",
". 3 Z.[.!.B.k.>.D f S F._.].^.R.Y.Q.=Xk.B n M F :.2.L.(.{.1XN.>.c , X i [ ^ * . ",
". 3 A.[.>XeXm.6.G 0 7 #.Y.Y.Y.Y.Y.W.M.s.j 5 G 2.5.2.W.|.7X1Xn.<.c : X i [ ( * . ",
". 8 XXqX5XrXl.o.G c g C V V V V V l m n z h A  . . .J.9X0XtXn.-.s - . i [ ( * . ",
". 8 @XbXpXrXk.o.{ { A < $ O + $ O O O < c } } { { { OXxXjXtXc.-.6 # X i [ ( * . ",
". 8 @XbXpXrXz.5.X.X...D k k k k k k k D ..X.X.X.3.X.-XxXjXyXn.>.g ; X i [ ( * . ",
". 8 @XbXhXrXn.f.6.6.6.6.6.6.6.6.6.6.6.6.6.6.6.6.6.6.-XxXjXyXN.<.v , . i [ ( * . ",
". 8 @XbXkXpX*X<.o.o.X.X.X.X.X.X.X.X.X.X.X.X.X.3.+X4XgXcXkXtXn.:.g - X i [ ( * . ",
". 8 @XnXcXbX-Xo./ } } { } A { { { { A } { A A | ;XxXnXnXjXyXn.I 6 # . i [ ( * . ",
". % Q @X@X@X4.h t s s s s s s s s s g s g g g h Y @X@X@X$Xf.a.n # O . r ~ y + . ",
". X % 8 8 8 9 O O O O O O O O O O O O O O O O O % 8 8 8 w 1 1 + X . . + * + X . ",
". . . . . . . . . . . . . . . . . . . . . . . . . . . . . . . . . . . . . . . . "
};
