/* XPM */
static char *_df8d39bca30481ef2cc5aeeaf9eb7f9q4Uudncu5ZPBvwBe[] = {
/* columns rows colors chars-per-pixel */
"30 30 199 2 ",
"   c None",
".  c #000000",
"X  c #0A0500",
"o  c #140C02",
"O  c #1B0C00",
"+  c #100600",
"@  c #1B1302",
"#  c #161505",
"$  c gray8",
"%  c #231502",
"&  c #2D1400",
"*  c #221C00",
"=  c #2C1D03",
"-  c #2D1B0A",
";  c #331700",
":  c #331A01",
">  c #3B1C03",
",  c #331E0C",
"<  c #2B290E",
"1  c #342300",
"2  c #3E2206",
"3  c #342E05",
"4  c #3C230C",
"5  c #3B280B",
"6  c #3D3101",
"7  c #33320C",
"8  c #2A2A19",
"9  c #3F2610",
"0  c #333312",
"q  c #39341B",
"w  c #252525",
"e  c gray17",
"r  c #36352E",
"t  c #4B2A05",
"y  c #42250B",
"u  c #46280E",
"i  c #4E2F09",
"p  c #402207",
"a  c #562F00",
"s  c #4A3105",
"d  c #48360C",
"f  c #563300",
"g  c #5A3500",
"h  c #553900",
"j  c #5C3C03",
"k  c #52320D",
"l  c #472A10",
"z  c #492C12",
"x  c #4D3017",
"c  c #543511",
"v  c #553815",
"b  c #633D03",
"n  c #543921",
"m  c #5D4D00",
"M  c #554E09",
"N  c #5B400C",
"B  c #594618",
"V  c #59591E",
"C  c #624107",
"Z  c #65430A",
"A  c #68430A",
"S  c #68480F",
"D  c #7D5202",
"F  c #7F5B00",
"G  c #745408",
"H  c #604414",
"J  c #664E1C",
"K  c #745311",
"L  c #6A5305",
"P  c #7F6800",
"I  c #7F6200",
"U  c #7F740C",
"Y  c #7F7514",
"T  c #595927",
"R  c #5F4630",
"E  c #555536",
"W  c #68653A",
"Q  c #7F7A49",
"!  c #656565",
"~  c gray50",
"^  c #825400",
"/  c #895502",
"(  c #805D00",
")  c #8D5905",
"_  c #925D06",
"`  c #806A00",
"'  c #8E6D00",
"]  c #896E0E",
"[  c #836805",
"{  c #9B6200",
"}  c #9C6D00",
"|  c #986309",
" . c #96730E",
".. c #9C750D",
"X. c #997F0D",
"o. c #807A15",
"O. c #917613",
"+. c #927915",
"@. c #967D19",
"#. c #AA7200",
"$. c #B17502",
"%. c #917E23",
"&. c #8E7C36",
"*. c #8B7721",
"=. c #917A45",
"-. c #907F68",
";. c #9E810C",
":. c #9C891F",
">. c #A48502",
",. c #AB8A00",
"<. c #B18E0C",
"1. c #B08D11",
"2. c #AA9C11",
"3. c #A9A21F",
"4. c #80802A",
"5. c #808024",
"6. c #95872B",
"7. c #968A3B",
"8. c #989836",
"9. c #A58F27",
"0. c #B19624",
"q. c #A08F31",
"w. c #A89935",
"e. c #A9A62A",
"r. c #B3A12B",
"t. c #AAAA35",
"y. c #A9A93D",
"u. c #A7A736",
"i. c #B6A331",
"p. c #C38400",
"a. c #C38B00",
"s. c #C39500",
"d. c #DD9300",
"f. c #DE9B00",
"g. c #E39700",
"h. c #E59901",
"j. c #EA9C00",
"k. c #C3A20E",
"l. c #DFA100",
"z. c #DFAA00",
"x. c #DFB400",
"c. c #C2A717",
"v. c #DBBE11",
"b. c #EBA900",
"n. c #F5A400",
"m. c #FBA800",
"M. c #E0B602",
"N. c #EBBE00",
"B. c #EBB400",
"V. c #C4AC2C",
"C. c #CABB2F",
"Z. c #C8BC36",
"A. c #DFC918",
"S. c #DEC51C",
"D. c #E5CD16",
"F. c #EAD317",
"G. c #E7D01A",
"H. c #F5DD17",
"J. c #FAE419",
"K. c #FCE81D",
"L. c #DEC822",
"P. c #DFD131",
"I. c #E0D332",
"U. c #E7DA2C",
"Y. c #E9E23A",
"T. c #F3E733",
"R. c #9A9859",
"E. c #B2985E",
"W. c #A8A857",
"Q. c #988879",
"!. c #A89A7F",
"~. c #B9AA74",
"^. c #C8BC68",
"/. c #DFDA4A",
"(. c #D5D55C",
"). c #CAC147",
"_. c #E4DB44",
"`. c #E0DB4B",
"'. c #E7E440",
"]. c #ECE546",
"[. c #F3EC4A",
"{. c #F3EE53",
"}. c #F9F859",
"|. c #F8F349",
" X c #DFD17C",
".X c #D5CE77",
"XX c #E6D97C",
"oX c #E7E36A",
"OX c #898784",
"+X c #908983",
"@X c #A19488",
"#X c #A9A997",
"$X c #D9D998",
"%X c #E6E294",
"&X c #D1CFC8",
"*X c #DFDAD5",
"=X c #C6C6C6",
"-X c #EAE5CB",
";X c #F1F1C8",
/* pixels */
"      . . . . . . . . . . . . . . . . . . . . . . .         ",
"      0 7 3 7 7 0 0 7 3 3 3 3 3 7 0 7 0 0 0 0 0 r e         ",
"    < 8.e.2.e.u.y.t.e.2.2.2.2.2.3.e.t.y.W.y.y.W.#X! .       ",
"  . < (.[.G.Y.].[.}.T.G.G.D.G.G.U.'.'.].[.}.}.oX-XQ.w       ",
". . w $X^.+.%.9.V.[.Z.+.O.+.+.+.%.6.6.0.V.{.Z.R.E.!.OXe     ",
". . w =X@Xv z Z O._.w.v l l z z z x x b | _.w.H D ~.&Xr #   ",
". . $ ! +XQ.n k K 0.r.6.v u z z z z x v K 0.i.q.K =.~.7.T . ",
". . . . ~ *XR y k ^ V._.B y z u l l z x v ^ V.`.J b  ._.Y . ",
". X o . &.$Xv 2 i D c.I.j 2 p p u l z z c D c.I.H b ..'.4.. ",
". @ & X Y L.j > t D k.A.c > > p 5 l l l c D k.D.N b ..Y.5.. ",
". : h + U G.;.]  .<.v.F.+.] ] *.6.=.-.R.@.<.v.F.;.>.k.T.o.. ",
". s D o U J.G.D.D.F.H.J.F.D.G.'.oX%X&XXXF.F.H.J.F.G.H.K.o.. ",
". 1 m + M 2.2.2.2.2.2.3.2.2.G.|.(.~.;X.X2.2.2.2.2.2.2.2.M . ",
". o @ X @ 3 3 3 3 3 3 3 3 L <.[.8.E %XR.3 3 3 3 3 3 3 3 @ . ",
". X X X * 6 @ o @ % 1 6 @ 2 G C.6.T W.W @ % 1 6 @ % = 6 * . ",
". o % X m >.s , 5 j ' >.d - 6  .r.t.E q l j ' >.d s L ,.m . ",
". O : X P x.Z l c D s.x.S - @ j 6.t.< - v D s.x.S A } B.` X ",
". O : X P x.Z y k D s.x.N 4 - 1 d M 9 9 v D s.x.S A } D.` . ",
". O : X P x.j p k D s.x.j p 9 o X o 9 z v D s.M.A A } N.` . ",
". O ; X P M.j 5 k D s.x.j 2 u - < - z z v D s.M.C C } N.` . ",
". O & X P x.f 2 k D s.x.b p l l z z z z c D s.M.j b } N.` . ",
". o & X F z.f > t D a.z.g > y y l l l l c D a.z.b b } B.` . ",
". O & X F l.f > t D a.l.g > > y u l u l c D a.l.g b } b.( . ",
". O & X F d.a > t D p.g.f > > > p y u l c D a.f.f j { b.( . ",
". O & X D d.f > t D p.d.g ; > > p p p u v D p.g.a b { j.F . ",
". + O . D j.{ / _ $.d.h._ ^ / / ) ) ) _ | $.d.h._ { p.m.^ . ",
". . X . ^ m.h.g.h.j.n.m.h.g.g.g.g.g.g.h.h.j.m.m.h.h.n.m.^ . ",
". . . . h #.#.#.#.#.#.#.#.#.#.#.#.#.#.#.#.#.#.#.#.#.#.#.h . ",
". . . . @ 1 1 1 1 1 1 1 1 1 1 1 1 1 1 1 1 1 1 1 1 1 1 1 @ . ",
". . . . . . . . . X . . . . . . . . . . . . . . . X . . . . "
};
