/* XPM */
static char *_53ca276b77949d28e41b7e633c91ac2E0WXMoviWGUnclby[] = {
/* columns rows colors chars-per-pixel */
"50 50 149 2 ",
"   c None",
".  c #412320",
"X  c #412321",
"o  c #4C383D",
"O  c #534148",
"+  c #434F65",
"@  c #445066",
"#  c #445167",
"$  c #455167",
"%  c #455168",
"&  c #465169",
"*  c #465268",
"=  c #47546B",
"-  c #47556B",
";  c #49556B",
":  c #48566B",
">  c #48556C",
",  c #5D5B6D",
"<  c #4C5971",
"1  c #4D5972",
"2  c #4D5973",
"3  c #4E5B73",
"4  c #4F5C74",
"5  c #4F5C75",
"6  c #505C71",
"7  c #505D75",
"8  c #525E75",
"9  c #535F75",
"0  c #535F76",
"q  c #546076",
"w  c #556177",
"e  c #53607A",
"r  c #556178",
"t  c #576278",
"y  c #576379",
"u  c #54617B",
"i  c #54627B",
"p  c #55637D",
"a  c #56627C",
"s  c #56647E",
"d  c #57647F",
"f  c #57657F",
"g  c #58647A",
"h  c #5D697F",
"j  c #6A6A7D",
"k  c #5B6780",
"l  c #596782",
"z  c #596882",
"x  c #5C6981",
"c  c #5C6982",
"v  c #5E6A82",
"b  c #5F6B83",
"n  c #5F6C83",
"m  c #5B6984",
"M  c #5D6B87",
"N  c #5E6C88",
"B  c #5F6D8A",
"V  c #606C81",
"C  c #616D82",
"Z  c #606D85",
"A  c #616D85",
"S  c #606E89",
"D  c #606E8A",
"F  c #606E8B",
"G  c #606F8B",
"H  c #647086",
"J  c #647087",
"K  c #60708B",
"L  c #647088",
"P  c #657188",
"I  c #667288",
"U  c #61708C",
"Y  c #687389",
"T  c #68748A",
"R  c #6A758B",
"E  c #68718C",
"W  c #6B778C",
"Q  c #6D798E",
"!  c #647391",
"~  c #657492",
"^  c #677695",
"/  c #677796",
"(  c #6A7791",
")  c #687795",
"_  c #687696",
"`  c #6B7892",
"'  c #6C7890",
"]  c #6C7891",
"[  c #6D7A92",
"{  c #6F7B93",
"}  c #6F7C94",
"|  c #6B7A98",
" . c #6C7B9B",
".. c #6E7E9D",
"X. c #6F7F9F",
"o. c #707B90",
"O. c #707B91",
"+. c #707D95",
"@. c #717D95",
"#. c #727E95",
"$. c #737F96",
"%. c #707F9F",
"&. c #707FA0",
"*. c #778099",
"=. c #70809F",
"-. c #79859B",
";. c #7B879D",
":. c #7C869C",
">. c #7C879C",
",. c #7D889E",
"<. c #6F80A0",
"1. c #7080A0",
"2. c #7080A1",
"3. c #7282A1",
"4. c #7987A0",
"5. c #7E8AA0",
"6. c #7C89A3",
"7. c #7E8BA4",
"8. c #7D8CA9",
"9. c #808BA0",
"0. c #808CA1",
"q. c #818DA6",
"w. c #808EAA",
"e. c #8591A8",
"r. c #8591AA",
"t. c #8694AF",
"y. c #8895AF",
"u. c #8996AF",
"i. c #9399AE",
"p. c #8794B0",
"a. c #8895B0",
"s. c #8D9AB3",
"d. c #8F9CB5",
"f. c #929DB2",
"g. c #939DB2",
"h. c #909CB4",
"j. c #919DB6",
"k. c #929EB6",
"l. c #98A2B7",
"z. c #99A3B8",
"x. c #9AA3B8",
"c. c #99A5BB",
"v. c #9CA7BD",
"b. c #9EA9BF",
"n. c #A0ABC0",
"m. c #A3ADC2",
"M. c #A5AFC3",
"N. c #A6AFC3",
"B. c #A6B0C4",
/* pixels */
"                    y.y.y.y.y.y.y.@.# ' a.a.a.a.y.y.a.y.6.8 V y.y.y.y.y.y.y.a.                      ",
"                    y.y.y.y.y.y.y.@.* @.k.h.k.k.k.k.k.h.r.w V y.y.y.y.y.y.y.a.                      ",
"                    y.y.y.y.y.y.p.@.# >.M.n.M.n.M.M.n.M.g.r b p.y.y.y.y.y.y.a.                      ",
"                  ' y.y.y.y.y.y.a.} * O.s.s.s.s.s.s.s.s.q.0 V y.y.y.y.y.y.y.4.                      ",
"y.y.y.y.y.y.y.7.0 v a.y.u.u.u.a.y.@.# M =.=.X.X.X.X.X.X._ 1 n y.a.y.u.u.a.a.@.+ { y.y.y.y.y.y.y.A @ ",
"y.y.y.y.y.y.y.7.0 J c.c.c.c.c.c.c.,.# M %.=.X.X.X.X.X.X._ 1 J c.c.c.c.c.c.z.;.+ ' y.y.y.y.y.y.y.A @ ",
"y.y.y.y.y.y.y.7.0 I b.b.b.b.b.b.b.5.= M X.X.X.X.X.X.X.X.) < R b.b.b.b.b.b.b.>.* { y.y.y.y.y.y.y.A @ ",
"y.y.y.y.y.y.y.7.0 z r.8.8.e.w.8.8.' # M X.X.X.X.X.X.X.=.) < z e.w.w.w.w.w.w.` + { t.y.y.y.y.y.y.n + ",
"h.h.h.h.h.h.h.r.w a =.=.X.X.X.X.&.B # b X.X.X.X.X.X.X.X._ < s X.X.X.X.X.X.X.N + $.h.h.h.h.h.h.h.J + ",
"n.n.n.n.n.n.n.h.g a X.=.X.X.X.X.&.B # N X.X.X.X.X.X.X.X.) 1 r X.X.X.X.X.X.X.G # ;.n.n.b.n.n.n.n.W @ ",
"k.k.h.h.h.h.d.e.r e X.X.X.X.=.=.&.! * N <.<.<.<.=.<.<.<.^ 1 m <.X.X.X.X.X.X.B + $.k.k.k.k.k.h.h.J + ",
"3.3.3.3.3.3.3. .3 e X.X.X.X.X.=.&.X.                          <.X.X.X.X.X.X.B # B 3.3.3.3.3.3.3.s + ",
"&.&.X.X.X.X.X. .e s =.=.=.=.=.=.X.                            3.=.=.=.=.=.=.G # ~ &.&.X.X.X.X.X.s @ ",
"&.&.X.X.X.X.X.X.                                                                &.&.X.X.X.X.X.X.s @ ",
"X.X.X.X.X.X.X.X.                                                                &.X.X.X.X.X.X.X.s + ",
"^ ^ ^ ^ ^ ^ ^ ^                                                                 ^ ^ ^ ^ ^ ^ ^ ^ e + ",
"4 4 4 4 4 4 1 8                                                                 0 3 0 1 4 4 4 4 - + ",
"V V V V V V V v                                                                 v V V n V n V V 8 + ",
"l.l.l.l.l.l.z.l.                                                                z.l.l.l.z.l.z.z.I + ",
"d.d.d.d.d.d.d.s.                                                                d.d.d.d.d.h.s.s.S + ",
"3.=.<.<.3.X.&.3.                                                                3.X.3.X.&.<.3.X.f + ",
"X.X.X.X.X.X.X.X.                                                                X.X.X.X.X.X.X.X.f + ",
"X.X.X.X.X.X.X.%.                                                                &.X.X.X.X.X.X.X.a + ",
"X.X.X.X.X.X.X.%.                                                                &.X.X.X.X.X.X.X.f + ",
"X.X.X.X.X.X.X.%.                                                                &.X.X.X.X.X.X.X.s + ",
"X.X.X.X.X.X.X.%.                                                                &.X.X.X.X.X.X.X.s + ",
"G G G G G K G K                                                                 U G G G G G G G 0 + ",
"= = = = = = = =                                                                 = = = = = = = = # + ",
"o.o.O.' o.o.o.o.                                                                o.' O.O.o.o.o.o.w + ",
"B.B.B.M.M.M.N.N.                                                                B.N.B.B.M.M.M.M.Q + ",
"t.t.t.t.t.t.p.t.                                                                t.t.t.t.t.t.t.t.A + ",
"X.X.X.X.X.X.X.X.                                                                %.X.X.=.X.X.%.%.p + ",
"X.X.X.X.X.X.X.%.                                                                &.X.X.X.X.X.X.X.s + ",
"X.X.X.X.X.X.X.%.                                                                &.X.X.X.X.X.X.X.s + ",
"X.X.X.X.X.X.X.%.                                                                &.X.X.X.X.X.X.X.s + ",
"X.X.X.X.X.X.X.X.                                                                &.X.X.X.X.X.X.X.s + ",
"X.X.&.X.X.X.&.X.                                                                &.&.X.=.X.&.&.&.p + ",
"k k k z l l k z                                                                 z k k z k k l l 1 + ",
"= ; ; ; = ; ; ;                                                                 - - ; ; ; ; - - * + ",
"5.0.9.9.5.0.9.9.                                                                0.5.9.9.9.9.9.6.h + ",
"v.v.v.v.v.v.v.z.                                                                i.b.c.b.c.b.v.v.R + ",
"8.8.8.8.8.8.8.*.O X X X X X X X X X X X X X X X X X X X X X X X X X X X X X X X j 8.8.8.8.8.8.8.v + ",
"X.X.X.X.%.X.X.E o . . . . . X . . . . . X . . . X . . . X . . . X . . . X . . . , X.X.X.X.X.X.X.s + ",
"X.X.X.X.X.X.X.E o X . . . . . . . . . . . . . . . . . . . . . . . . . . . . . . , X.X.X.X.X.X.X.s + ",
"X.X.X.X.X.X.X.E o . . . . . . . . . . . . . . . . . . . . . . . . . . . . . . . , X.X.X.X.X.X.X.s + ",
"X.X.X.X.X.X.X.E o . . X . . . . . X . . . . . X . . . . . X . . . . . . . X . . , X.X.X.X.X.X.X.s + ",
"                                                                                                    ",
"                                                                                                    ",
"                                                                                                    ",
"                                                                                                    "
};
