/* XPM */
static char *_4f18b1b9f9a4b62ecee564f9661b75eZRszNidnROOY7wdb[] = {
/* columns rows colors chars-per-pixel */
"45 45 163 2 ",
"   c None",
".  c #010101",
"X  c #080604",
"o  c gray4",
"O  c #0E0D03",
"+  c #110A07",
"@  c #120C09",
"#  c #18080A",
"$  c #0F1509",
"%  c #151305",
"&  c #1A1707",
"*  c #1A130C",
"=  c #141A0C",
"-  c #131408",
";  c #131312",
":  c #1E1B15",
">  c #1C1B1B",
",  c #171615",
"<  c #211E09",
"1  c #220F11",
"2  c #241C16",
"3  c #2C1A12",
"4  c #3B1518",
"5  c #2C270B",
"6  c #2E290C",
"7  c #322D0D",
"8  c #39330F",
"9  c #36310E",
"0  c #2D2319",
"q  c #37291A",
"w  c #3D2D1D",
"e  c #263518",
"r  c #343311",
"t  c #3A3712",
"y  c #363B17",
"u  c #383D19",
"i  c #252424",
"p  c #282726",
"a  c #282827",
"s  c #2C2B2A",
"d  c #29232F",
"f  c #312A24",
"g  c #31302F",
"h  c #3F3124",
"j  c gray19",
"k  c #383735",
"l  c #3D3C3A",
"z  c #41301F",
"x  c #423D19",
"c  c #501D21",
"v  c #591F25",
"b  c #452E23",
"n  c #573424",
"m  c #413F3D",
"M  c #662429",
"N  c #6A252C",
"B  c #782A31",
"V  c #32441E",
"C  c #3B461C",
"Z  c #3A4C22",
"A  c #3D5426",
"S  c #43441D",
"D  c #4B4E22",
"F  c #455023",
"G  c #4C5325",
"H  c #415827",
"J  c #4C5628",
"K  c #455E2A",
"L  c #4D5B29",
"P  c #515126",
"I  c #44423F",
"U  c #524438",
"Y  c #61482E",
"T  c #6D452F",
"R  c #6C4F33",
"E  c #6B503F",
"W  c #7E5C3B",
"Q  c #4B662E",
"!  c #4B692F",
"~  c #45612B",
"^  c #363A43",
"/  c #484643",
"(  c #4E4C48",
")  c #494744",
"_  c #54524E",
"`  c #575551",
"'  c #595652",
"]  c gray35",
"[  c #655341",
"{  c #655453",
"}  c #6C6A75",
"|  c #88363E",
" . c #84623E",
".. c #A53B44",
"X. c #A83B45",
"o. c #915D42",
"O. c #BE434E",
"+. c #8E6943",
"@. c #8B6C4D",
"#. c #926E4B",
"$. c #93714F",
"%. c #866E57",
"&. c #91775E",
"*. c #987859",
"=. c #95775A",
"-. c #A1774D",
";. c #AD7B4F",
":. c #A17B55",
">. c #B77E52",
",. c #9B7E62",
"<. c #C24651",
"1. c #C54A54",
"2. c #C94B56",
"3. c #CB4D58",
"4. c #C85757",
"5. c #CF505C",
"6. c #C45853",
"7. c #D3535E",
"8. c #D65460",
"9. c #D95763",
"0. c #D95B63",
"q. c #DC6A6C",
"w. c #D96664",
"e. c #AF864B",
"r. c #B08253",
"t. c #9C8065",
"y. c #A3866A",
"u. c #BA926B",
"i. c #B69370",
"p. c #BF9C7C",
"a. c #C88F5C",
"s. c #D0805E",
"d. c #DA8569",
"f. c #C09263",
"g. c #D09962",
"h. c #CDA26F",
"j. c #D9A066",
"k. c #DBA36B",
"l. c #C3A07E",
"z. c #DDA770",
"x. c #DFAA76",
"c. c #D2A374",
"v. c #E3AF7D",
"b. c #E3B07E",
"n. c #6D7585",
"m. c #747983",
"M. c #928583",
"N. c #E79E87",
"B. c #D8B18B",
"V. c #E5B383",
"C. c #E4B589",
"Z. c #E7BA8E",
"A. c #EBBF93",
"S. c #ECC096",
"D. c #EEC39A",
"F. c #BAC0CD",
"G. c #BFCEED",
"H. c #CECECE",
"J. c #DCDFE2",
"K. c #C3D3F2",
"L. c #DFE9FD",
"P. c #F3F7FE",
"I. c #FEFDFD",
/* pixels */
"                                                                                          ",
"                                    . B B B B | B B .                                     ",
"                                  c O.O.O.<.9.9.9.1.O.c                                   ",
"                                . O.O.3.7.9.9.9.9.9.8.1.v                                 ",
"                                X.O.7.9.9.9.9.9.9.9.9.2.O.M                               ",
"                              M O.<.8.9.9.9.9.9.9.9.9.9.1.O.#                             ",
"                            + X.O.7.9.9.9.9.9.9.9.9.9.9.9.2.#                             ",
"                            # O.O.9.9.7.1.6.d.q.9.9.9.9.9.O.#                             ",
"                            # O.O.7.0.1.s.j.V.D.9.9.9.9.2.O.#                             ",
"                            # O.O.1.9.j.j.j.D.D.9.9.9.2.O.M                               ",
"                              4 O.4.0.C.] . R j.N.9.2.O.N                                 ",
"                              . # E q.C.} d c.A.C.w.X.1                                   ",
"                                . w -.i.M.{ C.D.l.b.h                                     ",
"                                  . X U Z.D.D.D.p.D.r.                                    ",
"                                    . 0 g.A.%.: [ B..                                     ",
"                                      X z e.h.b.u.0                                       ",
"                                  . . i . . X . X .                                       ",
"                              . ; g l s b j.v.S.;.2 ; o                                   ",
"                              , g l ` _ ( q k.S.+.i ( s i                                 ",
"                            X g i g ) ' { % g.S.#.i ' ' k .                               ",
"                            . ; . ; s ' ' + k.A.$.i ( g ` .                               ",
"                            @ r.X . a ' ' O k.g.t.I / > s .                               ",
"                            @ a.X ; g ' ' @ g.V.=.I / 3 .                                 ",
"                          . o.D.X ; g ' ' O k.D.*.I / n .                                 ",
"                            T z.X j I ] ' + k.S.*./ /  ..                                 ",
"                            * k.X > j ] ' + j.S.+.I /  ..                                 ",
"                            * V.X , g Z ' + k.q +.i / &..                                 ",
"                        I.    :.,.> g _ I + g.V.f.f / &..                                 ",
"                          I.2 I.I.; g ( ; . . . . . /  ..                                 ",
"                            o >.V.@., d o . .   j i a @.Y                                 ",
"                              W 2 : . + 7 7 7 H u r X o Z..                               ",
"                                    . 8 t S D Q A Q Z % y.                                ",
"                                    < 9 x K G D Q J D y .                                 ",
"                                    6 t S ! x . $ ~ Q A .                                 ",
"                                    7 t G G e . % K G D .                                 ",
"                                    5 t V ! e . % V Q A .                                 ",
"                                  O u G F A $ . . & L C .                                 ",
"                                  % S Z F r .   . . P J .                                 ",
"                                  % 9 V Z .     . 5 D u .                                 ",
"                                    7 r Z .     . 5 C =                                   ",
"                                    , : %         . 7 %                                   ",
"                                    F.J.^         . n.m..                                 ",
"                                    H.P.K..       . I.L.K.n.                              ",
"                                    . . . .         . . .                                 ",
"                                                                                          "
};
