/* XPM */
static char *fe4a58a674a74f5d8c19ed60513c4b0a4aAc2utzWxNMAMa5[] = {
/* columns rows colors chars-per-pixel */
"40 40 115 2 ",
"   c #1D1017",
".  c #1E1017",
"X  c #1E1118",
"o  c #1F1119",
"O  c #1F1218",
"+  c #201119",
"@  c #201218",
"#  c #221318",
"$  c #21121B",
"%  c #211418",
"&  c #241519",
"*  c #241719",
"=  c #23151C",
"-  c #26161F",
";  c #26181A",
":  c #27181E",
">  c #281A1A",
",  c #291C1B",
"<  c #2E1D1B",
"1  c #2A191D",
"2  c #2C1F1C",
"3  c #2C1E1F",
"4  c #301E1C",
"5  c #311F1C",
"6  c #2E201D",
"7  c #32221D",
"8  c #31221F",
"9  c #33251E",
"0  c #37241D",
"q  c #38241E",
"w  c #3A281F",
"e  c #3D281F",
"r  c #271720",
"t  c #281720",
"y  c #281821",
"u  c #291A21",
"i  c #2B1B21",
"p  c #2B1923",
"a  c #2C1B20",
"s  c #2E1B25",
"d  c #2F1C26",
"f  c #2F1D27",
"g  c #311E24",
"h  c #301C26",
"j  c #301F27",
"k  c #331F2A",
"l  c #312221",
"z  c #332421",
"x  c #332026",
"c  c #392520",
"v  c #392427",
"b  c #3D2727",
"n  c #3D2827",
"m  c #3F2927",
"M  c #332129",
"N  c #35202B",
"B  c #36212C",
"V  c #36242C",
"C  c #3A232F",
"Z  c #39272E",
"A  c #3B2430",
"S  c #3E2632",
"D  c #3F2633",
"F  c #3C2831",
"G  c #3D2A31",
"H  c #3F2A33",
"J  c #412B20",
"K  c #422C20",
"L  c #462E21",
"P  c #462E24",
"I  c #402A28",
"U  c #442C2B",
"Y  c #433022",
"T  c #493222",
"R  c #4C3322",
"E  c #493126",
"W  c #4F3627",
"Q  c #4B3228",
"!  c #49302B",
"~  c #503624",
"^  c #513727",
"/  c #533826",
"(  c #563B25",
")  c #573B25",
"_  c #543928",
"`  c #563B28",
"'  c #563A2E",
"]  c #583C2A",
"[  c #5B3E2B",
"{  c #5A3D2C",
"}  c #402633",
"|  c #412734",
" . c #452C30",
".. c #422835",
"X. c #432936",
"o. c #452B37",
"O. c #422C36",
"+. c #462C34",
"@. c #442C37",
"#. c #4B2F32",
"$. c #462D39",
"%. c #452F38",
"&. c #472E3A",
"*. c #482F3A",
"=. c #4B3032",
"-. c #4E3230",
";. c #47313A",
":. c #4A333C",
">. c #4B353D",
",. c #4C343E",
"<. c #5F4127",
"1. c #5F4228",
"2. c #604227",
"3. c #604228",
"4. c #503942",
/* pixels */
"................X.| X.| X.| X.| X.| X.| X.| X.| X.| X.| X.| X.| X.| X.| X.| X.| ",
"................| X.| X.| X.| X.| X.| X.| X.| X.| X.| X.| X.| X.| X.| X.| X.| X.",
"................X.| X.| X.| X.| X.| X.| X.| X.| X.| X.| X.| X.| X.| X.| X.| X.| ",
"................| X.| X.| X.| X.| X.| X.| X.| X.| X.| X.| X.| X.| X.| X.| X.| X.",
"................X.| X.| X.| X.| X.| X.| X.| X.| X.| X.| X.| X.| X.| X.| X.| X.| ",
"................| X.| X.| X.| X.| X.| X.| X.| X.| X.| X.| X.| X.| X.| X.| X.| X.",
"................X.| X.| X.| X.| X.| X.| X.| X.| X.| X.| X.| X.| X.| X.| X.| X.| ",
"................| X.| X.| X.| X.| X.| X.| X.| X.| X.| X.| X.| X.| X.| X.| X.| X.",
"........................X.| X.| ................X.| ............X.| X.| X.| X.| ",
"........................| X.| X.................| X.............| X.| X.| X.| X.",
"........................| | | | ............| | X.| X.| ..| ....X.| X.| X.| X.| ",
"..................@.-.-.U D D A A A A A A A A A A A D U -.-.@...| X.| X.| X.| X.",
"............} } ..=.' ] ! B k k k k k k k k k k k B A ! { ' -.| | | | | | @.| ..",
"..........D D D D #.{ 3.E x g v b b b b b b b b v x g Q 3.{ #.D | | | | | | ..| ",
"........D C B B N U ] 2.L 1 7 L ^ ` ` ` ` ` / / ! v x R 1.{ U B k k A | | @.| o.",
"......D C N f f f m / 2.K ; 4 R 1.<.1.1.2.2.3.2.^ m M ! 1.` m f f s k A | | ..| ",
"| D A A B N f u i q ~ <.K * ; 0 J J J J K K J K q a 3 L <.` U s p r s k A D | ..",
"| D A k M f p u X 0 ~ 2.K * . % # # # # % % % @ # # * m 2.` m s r $ = p k B | | ",
"..| k s r s p : X 5 ~ 2.K * # < q q 0 0 0 0 0 0 < # * K 1.` U s r X X t i k } | ",
"| | k = r p f r $ 5 ~ 1.K # < L ) ) ) ^ ) ) ) ) L < * K 1.) m s t X X X r f D | ",
"| D g # # i p u # 3 T / e * < L ) ) ) ) ) ) ) ) L < * w ^ W m f r X     # s D ..",
"..D s $ . O = O X 1 q Y 9 O * 7 q q q q q 0 q q 4 * @ 8 Y J x f r X     $ f D | ",
"| D f $       . . * 8 q , X O . @ @ . @ # . # . . . @ , 8 z x 3 u X . X $ s D | ",
"| | s #       . . ; 6 8 , . % ; > , > , ; 1 > 1 ; @ % , 8 8 i - X . . X # f | | ",
"| D g $ X X     . * 6 9 , X * 6 9 z 0 6 9 9 6 z 6 * . , 0 < ; X .     . X j G | ",
"| | B f i #     X = 6 x 3 X O , 6 6 6 6 6 6 6 < > % . - z 3 * X     O i M B H ..",
"....$.O.Z i     . O i f : . . O # # O = # * X r % . . r i i = X     a N O.......",
"....;.4.X.M r r - 1 f p :   X X * O # # # # X # @ @ % 1 f f u : u u N o.4.;.O...",
"| | @.*.O.H H F F F M f r X # r u r r r i u r r r X   u f M Z G } G X.+.$.$.$.X.",
"X.@.| ..;.4.4.4.4.;.A f u o = p M M g k f N k k i r # : f C ;.4.4.4.:.*.| | | | ",
"| X.......:.;.:.>.;.O.G A B V F H G H H H H H H A V V C G | ;.:.$.,.$.$.| X.| X.",
"X.| | D @...O.....&.>.>.4.>.>.:.4.4.>.4.>.>.4.>.4.>.>.>.4.>.;...X.$.X.X.X.| X.| ",
"| X.| X.| X.| X.| o.*.:.,.4.,.:.,.,.,.,.,.,.,.,.,.4.:.:.,.*.$.| | X.} | | X.| X.",
"X.| X.| X.| X.| X.X.*.*.@.o.*.@.$.*.$.$.o.$.*.*.o.o.*.o.*.@.@.| | @.| @.X.| X.| ",
"| X.| X.| X.| X.| X.| X.| | } | X.| X.| | | | | X.| } } X.| X.| $.| | | | X.| X.",
"X.| X.| X.| X.| X.| X.| $.| o.| | X.| X.o.| o.| | X.} o.| X.| X.| | | o.X.| X.| ",
"| X.| X.| X.| X.X.| X.| | | X.| X.| X.| X.| X.| X.| X.| X.| X.| | | | X.| X.| X.",
"X.| X.| X.| X.| | X.| X.| | | X.| X.| X.| X.| X.| X.| X.| X.| X.X.| X.| X.| X.| ",
"| X.| X.| X.| X.X.| X.| X.| X.| X.| X.| X.| X.| X.| X.| X.| X.| | X.| X.| X.| X.",
"X.| X.| X.| X.| | X.| X.| X.| X.| X.| X.| X.| X.| X.| X.| X.| X.X.| X.| X.| X.| "
};
