/* XPM */
static char *d3eac321c45047f2940c316bc8d9c5f9PqyoNuX97qL5Y0DD[] = {
/* columns rows colors chars-per-pixel */
"45 45 18 1 ",
"  c black",
". c #060606",
"X c #090909",
"o c #0B0B0B",
"O c #131313",
"+ c #181818",
"@ c gray12",
"# c #202020",
"$ c #252525",
"% c #2D2D2D",
"& c gray18",
"* c #373737",
"= c #3A3A3A",
"- c #3F3F3F",
"; c gray26",
": c #494949",
"> c #4B4B4B",
", c gray30",
/* pixels */
",,,>  ,,,,,,,,,,,,,,,,,,,,,,# &>,,,,,,,,,,,,,",
",,,>  ,,,,,,,,,,,,,,,,,,,,,,# &,,,,,,,,,,,,,,",
"===*  ======================+ @*=============",
"&&&&  &&&&&&&&&&&&&&&&&&&&&&O +&&&&&&&&&&&&&&",
"&&&&  &&&&&&&&&&&&&&&&&&&&&&O +&&&&&&&&&&&&&&",
"&&&&  &&&&&&&&&&&&&&&&&&&&&&O +&&&&&&&&&&&&&&",
"&&&&  &&&&&&&&&&&&&&&&&&&&&&O +&&&&&&&&&&&&&&",
"&&&&  &&&&&&&&&&&&&&&&&&&&&&O +&&&&&&&&&&&&&&",
"&&&&  &&&&&&&&&&&&&&&&&&&&&&O +&&&&&&&&&&&&&&",
"&&&&  &&&&&&&&&&&&&&&&&&&&&&O +&&&&&&&&&&&&&&",
"                                             ",
"                                             ",
",,,,,,,,,,,,,,,,. ;,,,,,,,,>,,,,,,,,,,,,= X,,",
",,>>,,>>,,>>,,>>. ;,>>,,,,,>,,,,>>,,,,,>= +,,",
">>>>>>::>>>>>>::. ->::::>>::>>>>:::>>>>>= X>>",
"&&&&&&&&&&&&&&&&. $&&&&&&&&&&&&&&&&&&&&&# X&&",
"&&&&&&&&&&&&&&&&  &&&&&&&&&&&&&&&&&&&&&&# X&&",
"&&&&&&&&&&&&&&&&. $&&&&&&&&&&&&&&&&&&&&&$ X&&",
"&&&&&&&&&&&&&&&&. $&&&&&&&&&&&&&&&&&&&&&$ X&&",
"&&&&&&&&&&&&&&&&  &&&&&&&&&&&&&&&&&&&&&&# X&&",
"&&&&&&&&&&&&&&&&. $&&&&&&&&&&&&&&&&&&&&&$ .&&",
"&&&&&&&&&&&&&&&&. &&&&&&&&&&&&&&&&&&&&&&# .*&",
"                                             ",
"                                             ",
"&&&&&&&&  &&&&&&&&&&&&&&&&&&O +&&&&&&&&&&&&&&",
",,,,>,>>  ,,,>,,>,>,>,,,,,,,@ &,,,>,>>,,>,,,,",
",,,,,,,,  ,,,,,,,,,,,,,,,,,,# $,,,,,,,,,>,,,,",
"&&&&&&&&  &&&&&&&&&&&&&&&&&&O +&&&&&&&&&&&&&&",
"&&&&&&&&  &&&&&&&&&&&&&&&&&&O +&&&&&&&&&&&&&&",
"&&&&&&&&  &&&&&&&&&&&&&&&&&&O +&&&&&&&&&&&&&&",
"&&&&&&&&  &&&&&&&&&&&&&&&&&&O +&&&&&&&&&&&&&&",
"&&&&&&&&  &&&&&&&&&&&&&&&&&&O +&&&&&&&&&&&&&&",
"&&&&&&&&  &&&&&&&&&&&&&&&&&&+ +&&&&&&&&&&&&&&",
"&&&&&&&&  &&&&&&&&&&&&&&&&&&+ +&&&&&&&&&&&&&&",
"                                             ",
"                                             ",
"XXXXXXXXXXXXXXXXXX  .XXXXXXXXXXXXXXXXXXXXXXXX",
",,,,,,,,,,,,,,,,,,X -,,,,,,,,,,,,,,,,,,,,,,,;",
",,,,,,,,,,,,,,,,,,X -,,,,,,,,,,,,,,,,,,,,,,,;",
"&&&&&&&&&&&&&&&&&&. $&&&&&&&&&&&&&&&&&&&&&&&$",
"&&&&&&&&&&&&&&&&&&. $&&&&&&&&&&&&&&&&&&&&&&&&",
"&&&&&&&&&&&&&&&&&&. $&&&&&&&&&&&&&&&&&&&&&&&$",
"&&&&&&&&&&&&&&&&&&. $&&&&&&&&&&&&&&&&&&&&&&&&",
"&&&&&&&&&&&&&&&&&&. $&&&&&&&&&&&&&&&&&&&&&&&$",
"&&&&&&&&&&&&&&&&&&. $&&&&&&&&&&&&&&&&&&&&&&&$"
};
